<svg id="svg" version="1.1" xmlns="http://www.w3.org/2000/svg" xmlns:xlink="http://www.w3.org/1999/xlink" width="400" height="138.13333333333333" viewBox="0, 0, 400,138.13333333333333"><g id="svgg"><path id="path0" d="M126.833 8.098 C 126.513 8.134,125.050 8.279,123.583 8.421 C 118.132 8.950,111.595 10.174,106.500 11.620 C 105.996 11.763,105.208 11.974,104.750 12.090 C 104.292 12.205,103.692 12.377,103.417 12.473 C 103.142 12.568,102.354 12.813,101.667 13.016 C 100.979 13.219,100.117 13.495,99.750 13.631 C 99.383 13.766,98.858 13.934,98.583 14.005 C 98.308 14.075,97.446 14.373,96.667 14.666 C 95.888 14.958,95.010 15.268,94.717 15.354 C 94.424 15.441,93.974 15.621,93.717 15.754 C 93.460 15.888,93.158 15.998,93.046 15.999 C 92.934 16.000,92.521 16.142,92.129 16.316 C 91.737 16.489,91.042 16.782,90.583 16.967 C 85.979 18.820,77.099 23.027,73.250 25.177 C 72.792 25.434,72.192 25.761,71.917 25.906 C 71.642 26.051,71.137 26.337,70.796 26.543 C 70.455 26.748,69.705 27.171,69.129 27.481 C 68.554 27.792,68.046 28.100,68.000 28.166 C 67.954 28.233,67.654 28.420,67.333 28.583 C 67.012 28.746,66.712 28.926,66.667 28.982 C 66.621 29.038,66.252 29.264,65.847 29.485 C 65.442 29.705,64.677 30.174,64.147 30.526 C 63.617 30.878,63.113 31.167,63.029 31.167 C 62.944 31.167,62.780 31.281,62.664 31.420 C 62.549 31.559,62.202 31.792,61.894 31.939 C 61.586 32.085,61.333 32.271,61.333 32.352 C 61.333 32.434,61.262 32.500,61.175 32.500 C 60.979 32.500,59.437 33.521,59.361 33.702 C 59.331 33.774,59.234 33.833,59.146 33.833 C 59.058 33.833,58.580 34.133,58.083 34.500 C 57.587 34.867,57.106 35.167,57.015 35.167 C 56.924 35.167,56.790 35.261,56.717 35.375 C 56.643 35.490,56.171 35.865,55.667 36.208 C 55.163 36.551,54.337 37.135,53.833 37.506 C 53.329 37.877,52.729 38.307,52.500 38.461 C 52.271 38.616,52.023 38.838,51.950 38.954 C 51.877 39.071,51.746 39.167,51.660 39.167 C 51.573 39.167,51.333 39.309,51.126 39.482 C 50.919 39.656,49.587 40.715,48.167 41.836 C 46.746 42.957,45.508 43.959,45.417 44.062 C 45.325 44.165,44.575 44.807,43.750 45.488 C 42.925 46.170,42.127 46.845,41.977 46.988 C 41.826 47.132,41.077 47.813,40.312 48.500 C 36.923 51.545,30.337 58.320,28.080 61.083 C 27.556 61.725,27.024 62.310,26.897 62.383 C 26.770 62.457,26.667 62.598,26.667 62.698 C 26.667 62.798,26.564 62.963,26.438 63.065 C 26.313 63.167,25.281 64.487,24.146 66.000 C 22.240 68.540,21.700 69.291,21.252 70.027 C 21.159 70.179,20.840 70.652,20.542 71.077 C 20.244 71.502,20.000 71.912,20.000 71.988 C 20.000 72.064,19.880 72.226,19.733 72.348 C 19.586 72.470,19.399 72.723,19.319 72.910 C 19.238 73.097,19.002 73.524,18.795 73.859 C 17.024 76.715,15.640 79.376,14.255 82.583 C 14.137 82.858,13.881 83.442,13.686 83.879 C 13.492 84.317,13.333 84.767,13.332 84.879 C 13.332 84.992,13.235 85.271,13.118 85.500 C 10.455 90.691,9.765 101.227,11.715 106.917 C 13.748 112.847,18.138 117.341,24.729 120.237 C 25.268 120.473,25.793 120.669,25.896 120.672 C 25.999 120.675,26.383 120.823,26.750 121.000 C 27.117 121.177,27.529 121.324,27.667 121.326 C 27.804 121.328,28.367 121.474,28.917 121.650 C 30.496 122.154,32.879 122.642,35.522 123.002 C 38.625 123.424,48.667 123.503,48.667 123.106 C 48.667 122.929,48.117 122.851,46.208 122.759 C 44.856 122.693,43.262 122.540,42.667 122.418 C 42.071 122.297,41.214 122.149,40.762 122.090 C 40.310 122.031,39.884 121.948,39.816 121.906 C 39.747 121.864,39.142 121.685,38.471 121.509 C 37.261 121.191,36.059 120.797,35.417 120.507 C 35.233 120.424,34.596 120.148,34.000 119.894 C 32.972 119.454,32.666 119.283,31.507 118.500 C 31.235 118.317,30.969 118.167,30.914 118.167 C 30.812 118.167,29.822 117.414,28.942 116.667 C 26.686 114.751,24.963 112.279,23.772 109.250 C 22.143 105.108,22.403 97.661,24.353 92.603 C 24.525 92.155,24.667 91.688,24.667 91.566 C 24.667 91.443,24.810 91.021,24.985 90.629 C 25.161 90.237,25.505 89.429,25.751 88.833 C 26.647 86.658,28.270 83.562,29.964 80.794 C 31.418 78.419,31.383 78.473,31.708 78.103 C 31.869 77.920,32.000 77.726,32.000 77.671 C 32.000 77.552,34.545 74.024,34.888 73.667 C 35.021 73.529,35.410 73.046,35.754 72.593 C 36.546 71.551,36.283 71.868,38.333 69.489 C 40.273 67.238,40.975 66.493,43.817 63.665 C 47.112 60.387,48.008 59.556,51.319 56.713 C 51.556 56.509,51.862 56.236,52.000 56.107 C 52.137 55.977,53.262 55.071,54.500 54.094 C 55.737 53.116,56.925 52.171,57.139 51.992 C 57.353 51.813,57.566 51.667,57.612 51.667 C 57.657 51.667,58.120 51.341,58.639 50.944 C 60.223 49.731,61.679 48.678,62.185 48.379 C 62.450 48.223,62.667 48.036,62.667 47.964 C 62.667 47.892,62.739 47.833,62.828 47.833 C 63.020 47.833,64.558 46.806,64.639 46.625 C 64.669 46.556,64.759 46.500,64.839 46.500 C 65.025 46.500,66.566 45.472,66.639 45.298 C 66.669 45.226,66.762 45.167,66.844 45.167 C 66.926 45.167,67.426 44.887,67.955 44.546 C 68.484 44.204,69.110 43.810,69.346 43.671 C 69.583 43.531,70.284 43.117,70.904 42.750 C 71.525 42.383,72.232 41.963,72.475 41.815 C 73.186 41.384,74.205 40.801,74.833 40.466 C 75.154 40.295,75.754 39.963,76.167 39.728 C 76.579 39.493,77.742 38.883,78.750 38.371 C 79.758 37.860,80.608 37.380,80.639 37.304 C 80.669 37.229,80.796 37.167,80.920 37.167 C 81.044 37.167,81.882 36.798,82.781 36.347 C 84.531 35.469,88.245 33.816,90.583 32.875 C 91.042 32.690,91.792 32.387,92.250 32.202 C 94.010 31.490,94.885 31.166,95.064 31.161 C 95.166 31.158,95.550 31.010,95.917 30.833 C 96.283 30.656,96.694 30.509,96.830 30.506 C 96.966 30.503,97.453 30.359,97.913 30.187 C 99.278 29.675,99.857 29.487,101.023 29.173 C 101.631 29.010,102.229 28.815,102.350 28.740 C 102.472 28.664,102.874 28.548,103.244 28.480 C 103.614 28.412,104.367 28.232,104.917 28.080 C 115.470 25.159,127.261 24.368,134.333 26.107 C 134.929 26.253,135.717 26.431,136.083 26.502 C 140.123 27.283,145.455 30.398,147.950 33.434 C 149.532 35.359,149.897 35.945,150.895 38.167 C 152.695 42.174,152.734 49.354,150.981 54.306 C 150.808 54.796,150.667 55.310,150.667 55.448 C 150.667 55.586,150.558 55.936,150.424 56.225 C 150.291 56.514,150.074 57.050,149.942 57.417 C 149.277 59.263,148.374 61.333,147.726 62.500 C 147.598 62.729,147.264 63.367,146.984 63.917 C 146.703 64.467,146.260 65.254,145.999 65.667 C 145.739 66.079,145.322 66.792,145.074 67.250 C 144.825 67.708,144.475 68.271,144.295 68.500 L 143.969 68.917 145.524 68.965 C 146.544 68.997,147.100 68.951,147.140 68.831 C 147.173 68.730,147.330 68.521,147.488 68.366 C 147.937 67.924,150.692 64.260,151.773 62.667 C 152.115 62.163,152.437 61.712,152.489 61.667 C 152.541 61.621,152.678 61.433,152.794 61.250 C 153.314 60.428,153.657 59.903,153.782 59.741 C 153.969 59.497,154.270 59.020,154.669 58.333 C 154.856 58.012,155.146 57.525,155.314 57.250 C 156.487 55.331,158.317 51.887,158.947 50.417 C 159.182 49.867,159.509 49.117,159.672 48.750 C 162.834 41.659,164.222 32.614,162.945 27.417 C 162.199 24.379,161.047 21.444,160.226 20.487 C 160.102 20.342,160.000 20.168,160.000 20.101 C 160.000 20.033,159.794 19.702,159.542 19.364 C 159.290 19.026,159.028 18.675,158.960 18.583 C 157.830 17.054,153.650 13.333,153.062 13.333 C 152.996 13.333,152.825 13.229,152.680 13.101 C 152.354 12.812,149.957 11.552,149.167 11.254 C 143.006 8.925,138.775 8.162,131.583 8.081 C 129.292 8.055,127.154 8.063,126.833 8.098 " stroke="none" fill="#ec2c2c" fill-rule="evenodd"></path><path id="path1" d="M47.190 69.625 C 46.799 71.189,46.798 71.167,47.205 71.165 C 50.662 71.145,53.014 72.860,54.295 76.333 C 54.790 77.677,56.002 82.556,55.997 83.190 C 55.996 83.406,56.142 84.258,56.322 85.083 C 56.683 86.737,57.128 88.951,57.663 91.750 C 57.995 93.488,58.186 94.453,58.990 98.458 C 59.179 99.398,59.487 100.935,59.675 101.875 C 59.863 102.815,60.165 104.258,60.345 105.083 C 60.525 105.908,60.670 106.733,60.667 106.917 C 60.664 107.100,60.809 107.925,60.989 108.750 C 61.350 110.404,61.795 112.617,62.329 115.417 C 62.522 116.425,62.824 117.962,63.000 118.833 C 63.176 119.704,63.481 121.242,63.676 122.250 C 64.998 129.062,65.847 133.303,66.345 135.583 C 66.525 136.408,66.671 137.290,66.669 137.542 L 66.667 138.000 67.886 138.000 L 69.106 138.000 70.419 135.406 C 71.142 133.979,71.793 132.775,71.867 132.729 C 71.940 132.684,72.002 132.520,72.004 132.365 C 72.006 132.210,72.154 131.896,72.333 131.667 C 72.513 131.438,72.663 131.137,72.667 131.000 C 72.671 130.862,72.821 130.563,73.000 130.333 C 73.179 130.104,73.329 129.804,73.333 129.667 C 73.337 129.529,73.487 129.229,73.667 129.000 C 73.846 128.771,73.994 128.486,73.996 128.368 C 73.998 128.250,74.082 128.062,74.182 127.951 C 74.282 127.841,75.089 126.313,75.974 124.556 C 76.859 122.800,78.192 120.175,78.936 118.723 C 83.254 110.299,87.259 102.461,89.654 97.750 C 90.726 95.642,91.692 93.748,91.801 93.542 C 91.911 93.335,92.075 93.017,92.167 92.833 C 92.258 92.650,92.408 92.350,92.500 92.167 C 92.592 91.983,92.742 91.683,92.833 91.500 C 92.925 91.317,93.064 91.035,93.141 90.875 C 93.219 90.715,93.407 90.358,93.558 90.083 C 93.710 89.808,94.302 88.653,94.875 87.516 C 95.629 86.020,95.928 85.559,95.957 85.849 C 95.979 86.070,96.148 86.981,96.332 87.875 C 96.874 90.508,97.297 92.629,97.671 94.583 C 98.205 97.383,98.650 99.596,99.011 101.250 C 99.191 102.075,99.336 102.900,99.333 103.083 C 99.330 103.267,99.475 104.092,99.655 104.917 C 100.048 106.716,100.527 109.092,101.000 111.583 C 101.191 112.592,101.490 114.129,101.664 115.000 C 101.838 115.871,102.130 117.333,102.314 118.250 C 102.497 119.167,102.797 120.667,102.980 121.583 C 103.841 125.889,104.002 126.704,104.329 128.417 C 104.770 130.722,105.218 132.956,105.658 135.031 C 105.846 135.919,106.000 136.832,106.000 137.059 C 106.000 137.917,106.121 138.000,107.374 138.000 C 108.771 138.000,108.642 138.127,110.009 135.417 C 111.024 133.404,113.420 128.739,113.797 128.042 C 114.002 127.662,114.217 127.241,114.475 126.708 C 114.553 126.548,114.741 126.192,114.893 125.917 C 115.045 125.642,115.706 124.367,116.361 123.083 C 117.016 121.800,118.023 119.850,118.600 118.750 C 119.176 117.650,120.107 115.850,120.670 114.750 C 121.232 113.650,122.160 111.850,122.732 110.750 C 123.303 109.650,124.485 107.362,125.357 105.667 C 126.228 103.971,127.042 102.396,127.164 102.167 C 127.286 101.938,127.449 101.619,127.526 101.458 C 127.700 101.098,128.007 100.499,128.188 100.167 C 128.263 100.029,128.767 99.054,129.308 98.000 C 129.849 96.946,130.825 95.052,131.479 93.792 C 132.132 92.531,133.181 90.506,133.810 89.292 C 135.908 85.238,137.228 82.808,137.692 82.141 C 137.861 81.898,138.000 81.628,138.000 81.542 C 138.000 81.456,138.150 81.249,138.333 81.083 C 138.517 80.917,138.667 80.722,138.667 80.649 C 138.667 80.576,138.910 80.168,139.208 79.741 C 139.506 79.315,139.825 78.842,139.917 78.691 C 140.008 78.540,140.125 78.379,140.176 78.333 C 140.227 78.287,140.550 77.877,140.895 77.421 C 143.296 74.239,146.250 72.147,149.382 71.409 L 150.633 71.114 150.741 70.432 C 150.801 70.057,150.888 69.593,150.936 69.401 L 151.023 69.052 140.526 69.022 L 130.029 68.991 129.848 69.837 C 129.575 71.108,129.575 71.107,130.729 71.469 C 134.543 72.666,135.317 75.148,133.415 80.083 C 133.168 80.725,132.880 81.478,132.774 81.757 C 132.669 82.037,132.452 82.465,132.292 82.710 C 132.131 82.955,132.000 83.234,132.000 83.331 C 132.000 83.427,131.638 84.199,131.195 85.045 C 130.752 85.891,130.313 86.733,130.221 86.917 C 130.128 87.100,129.950 87.438,129.825 87.667 C 129.700 87.896,129.171 88.908,128.650 89.917 C 128.129 90.925,127.255 92.612,126.708 93.667 C 126.161 94.721,125.177 96.615,124.523 97.875 C 123.869 99.135,122.798 101.198,122.143 102.458 C 121.489 103.719,120.529 105.575,120.011 106.583 C 119.493 107.592,118.990 108.567,118.894 108.750 C 118.798 108.933,118.644 109.233,118.552 109.417 C 118.306 109.909,117.968 110.549,117.804 110.833 C 117.725 110.971,117.535 111.346,117.383 111.667 L 117.105 112.250 116.902 111.417 C 116.790 110.958,116.693 110.396,116.685 110.167 C 116.678 109.938,116.523 109.075,116.341 108.250 C 116.159 107.425,115.853 105.925,115.662 104.917 C 115.470 103.908,115.171 102.371,114.997 101.500 C 114.823 100.629,114.525 99.092,114.333 98.083 C 114.142 97.075,113.842 95.537,113.666 94.667 C 113.490 93.796,113.186 92.258,112.991 91.250 C 112.796 90.242,112.493 88.801,112.318 88.048 C 112.143 87.295,112.001 86.507,112.003 86.298 C 112.004 86.088,111.858 85.242,111.678 84.417 C 110.570 79.343,110.265 77.409,110.377 76.177 C 110.570 74.048,112.055 72.344,114.453 71.501 C 115.596 71.099,115.497 71.214,115.748 70.009 L 115.959 69.000 101.399 69.000 L 86.840 69.000 86.760 69.375 C 86.717 69.581,86.658 70.058,86.630 70.435 L 86.579 71.120 87.831 71.417 C 91.791 72.358,92.808 73.256,94.318 77.147 C 94.837 78.482,95.165 77.646,90.741 86.250 C 89.798 88.083,88.264 91.083,87.333 92.917 C 86.402 94.750,84.870 97.750,83.928 99.583 C 82.987 101.417,81.404 104.529,80.412 106.500 C 79.420 108.471,78.471 110.282,78.304 110.526 C 78.137 110.769,77.998 111.069,77.996 111.192 C 77.994 111.316,77.846 111.604,77.667 111.833 L 77.341 112.250 77.340 111.750 C 77.339 111.475,77.191 110.575,77.011 109.750 C 76.591 107.823,75.664 103.207,75.004 99.750 C 74.811 98.742,74.507 97.185,74.327 96.292 C 74.147 95.398,73.850 93.917,73.667 93.000 C 73.483 92.083,73.183 90.583,73.000 89.667 C 72.817 88.750,72.512 87.231,72.323 86.292 C 70.661 78.013,70.602 77.486,71.130 75.500 C 71.713 73.308,72.741 72.287,75.250 71.410 C 76.276 71.052,76.167 71.161,76.354 70.305 C 76.441 69.908,76.552 69.452,76.601 69.292 C 76.684 69.015,75.913 69.000,62.018 69.000 L 47.346 69.000 47.190 69.625 M153.927 70.023 C 153.792 71.222,153.789 71.219,155.083 71.551 C 156.064 71.802,157.754 72.457,158.083 72.713 C 158.175 72.784,158.594 73.064,159.014 73.335 C 160.694 74.419,161.171 77.280,160.347 81.333 C 160.170 82.204,159.864 83.854,159.667 85.000 C 159.470 86.146,159.164 87.796,158.987 88.667 C 158.810 89.537,158.665 90.437,158.666 90.665 C 158.666 90.893,158.522 91.793,158.344 92.665 C 158.012 94.299,157.608 96.543,156.993 100.167 C 156.799 101.313,156.501 103.000,156.331 103.917 C 156.161 104.833,155.861 106.521,155.663 107.667 C 155.052 111.214,154.647 113.516,154.328 115.250 C 154.160 116.167,153.861 117.854,153.663 119.000 C 152.757 124.262,152.618 124.983,152.319 126.012 C 152.143 126.614,152.000 127.221,152.000 127.361 C 152.000 127.501,151.896 127.833,151.768 128.099 C 151.641 128.366,151.401 128.883,151.235 129.250 C 150.829 130.147,149.257 131.648,148.150 132.195 C 146.775 132.876,145.693 133.333,145.460 133.333 C 145.345 133.333,144.855 133.483,144.373 133.667 C 143.891 133.850,143.316 134.000,143.095 134.000 C 142.694 134.000,142.661 134.063,142.429 135.250 C 142.394 135.433,142.312 135.790,142.247 136.043 L 142.130 136.502 158.106 136.459 L 174.081 136.417 174.274 135.583 C 174.607 134.152,174.581 134.046,173.875 133.952 C 173.531 133.907,172.762 133.686,172.167 133.461 C 167.758 131.796,166.814 130.115,167.650 125.417 C 167.845 124.317,168.161 122.517,168.350 121.417 C 168.540 120.317,168.832 118.667,168.999 117.750 C 169.166 116.833,169.453 115.221,169.637 114.167 C 169.821 113.112,170.134 111.313,170.334 110.167 C 170.533 109.021,170.835 107.333,171.004 106.417 C 171.173 105.500,171.473 103.813,171.670 102.667 C 172.507 97.807,172.712 96.668,173.015 95.167 C 173.191 94.296,173.334 93.396,173.333 93.167 C 173.332 92.938,173.476 92.037,173.653 91.167 C 173.830 90.296,174.136 88.646,174.333 87.500 C 174.530 86.354,174.836 84.704,175.013 83.833 C 175.190 82.962,175.335 82.073,175.334 81.857 C 175.331 80.388,177.115 75.334,177.772 74.950 C 177.897 74.877,178.002 74.727,178.005 74.617 C 178.023 73.911,181.643 72.134,184.531 71.413 L 185.646 71.135 185.823 70.309 C 185.920 69.855,186.000 69.375,186.000 69.242 C 186.000 69.032,183.873 69.000,170.022 69.000 L 154.043 69.000 153.927 70.023 M194.082 69.458 C 194.032 69.710,193.910 70.142,193.812 70.417 C 193.713 70.692,193.538 71.292,193.423 71.750 C 193.308 72.208,193.095 72.958,192.951 73.417 C 192.806 73.875,192.544 74.737,192.367 75.333 C 192.191 75.929,191.888 76.942,191.693 77.583 C 191.499 78.225,191.187 79.275,191.000 79.917 C 190.473 81.725,190.047 83.149,189.674 84.345 C 189.114 86.144,189.134 86.191,190.439 86.133 C 191.475 86.086,191.562 86.052,191.817 85.583 C 192.979 83.446,193.641 82.305,194.115 81.627 C 194.418 81.192,194.667 80.801,194.667 80.756 C 194.667 80.712,195.166 80.022,195.776 79.222 C 198.430 75.743,200.362 74.462,204.583 73.382 C 205.651 73.109,206.934 73.079,219.734 73.035 C 235.237 72.982,233.935 72.887,232.820 73.991 C 232.584 74.225,231.652 75.242,230.749 76.250 C 228.203 79.094,228.127 79.176,227.375 79.929 C 226.985 80.318,226.667 80.681,226.667 80.735 C 226.667 80.790,226.414 81.078,226.105 81.375 C 225.797 81.673,224.806 82.742,223.904 83.750 C 223.002 84.758,221.923 85.949,221.507 86.395 C 221.091 86.841,220.563 87.411,220.333 87.660 C 220.104 87.910,219.574 88.483,219.156 88.932 C 218.737 89.382,217.655 90.575,216.751 91.583 C 215.848 92.592,215.007 93.478,214.884 93.552 C 214.761 93.626,214.696 93.746,214.741 93.818 C 214.785 93.891,214.637 94.049,214.411 94.170 C 214.185 94.291,214.000 94.452,214.000 94.529 C 214.000 94.605,213.748 94.911,213.441 95.209 C 213.133 95.506,212.177 96.538,211.316 97.500 C 209.096 99.982,208.669 100.454,207.917 101.253 C 206.602 102.649,203.930 105.578,201.925 107.819 C 201.646 108.131,201.098 108.706,200.708 109.095 C 200.319 109.485,200.000 109.848,200.000 109.902 C 200.000 109.956,199.748 110.244,199.441 110.542 C 199.133 110.840,198.145 111.908,197.244 112.917 C 196.343 113.925,195.396 114.975,195.139 115.250 C 194.883 115.525,194.352 116.097,193.961 116.522 C 193.570 116.947,192.912 117.660,192.500 118.106 C 192.088 118.553,191.002 119.743,190.087 120.751 C 189.172 121.759,188.178 122.830,187.878 123.131 C 187.579 123.432,187.333 123.715,187.333 123.761 C 187.333 123.806,187.033 124.120,186.667 124.457 C 186.300 124.794,186.000 125.119,186.000 125.180 C 186.000 125.240,185.681 125.618,185.290 126.020 C 184.900 126.421,183.981 127.416,183.249 128.231 C 182.516 129.046,181.617 130.028,181.250 130.414 C 177.958 133.880,177.824 134.076,177.449 135.959 L 177.341 136.501 209.462 136.459 L 241.583 136.417 241.814 135.667 C 241.941 135.254,242.174 134.579,242.333 134.167 C 242.752 133.079,243.182 131.825,243.333 131.250 C 243.484 130.675,243.915 129.421,244.333 128.333 C 244.752 127.246,245.182 125.991,245.333 125.417 C 245.406 125.142,245.597 124.542,245.759 124.083 C 245.921 123.625,246.191 122.856,246.360 122.375 C 246.529 121.894,246.811 121.106,246.988 120.625 C 247.164 120.144,247.357 119.506,247.417 119.208 L 247.526 118.667 246.472 118.669 C 245.891 118.671,245.338 118.727,245.241 118.794 C 245.001 118.962,244.000 120.479,244.000 120.675 C 244.000 120.762,243.939 120.833,243.864 120.833 C 243.789 120.833,243.559 121.133,243.353 121.500 C 243.147 121.867,242.908 122.167,242.823 122.167 C 242.737 122.167,242.667 122.249,242.667 122.349 C 242.667 122.878,238.774 127.222,237.080 128.583 C 232.781 132.037,230.730 132.333,211.090 132.333 C 198.572 132.333,197.955 132.319,198.222 132.042 C 199.181 131.042,199.787 130.385,201.252 128.750 C 202.156 127.742,203.126 126.661,203.406 126.348 C 203.687 126.035,204.235 125.461,204.625 125.071 C 205.015 124.682,205.333 124.319,205.333 124.265 C 205.333 124.210,205.586 123.922,205.894 123.625 C 206.203 123.327,207.145 122.307,207.988 121.359 C 208.831 120.410,209.779 119.377,210.094 119.062 C 210.409 118.747,210.667 118.454,210.667 118.411 C 210.667 118.368,210.919 118.089,211.228 117.791 C 211.536 117.494,212.487 116.462,213.341 115.500 C 215.599 112.953,215.844 112.686,216.625 111.905 C 217.015 111.515,217.333 111.152,217.333 111.098 C 217.333 111.044,217.586 110.756,217.894 110.458 C 218.203 110.160,219.154 109.129,220.007 108.167 C 221.525 106.455,222.064 105.863,223.417 104.420 C 224.278 103.502,224.757 102.974,226.753 100.750 C 227.657 99.742,228.607 98.692,228.863 98.417 C 229.363 97.879,230.392 96.761,231.339 95.726 C 231.662 95.373,232.637 94.297,233.505 93.335 C 234.373 92.373,235.308 91.351,235.583 91.062 C 235.858 90.774,236.496 90.073,237.000 89.504 C 237.504 88.936,238.179 88.191,238.500 87.849 C 238.821 87.507,239.721 86.525,240.500 85.667 C 241.279 84.808,242.104 83.904,242.333 83.659 C 243.327 82.593,245.740 79.946,247.217 78.299 C 248.098 77.318,248.953 76.372,249.117 76.197 C 253.267 71.782,254.000 70.877,254.000 70.176 C 254.000 69.819,254.046 69.409,254.101 69.264 C 254.193 69.024,251.489 69.000,224.188 69.000 L 194.173 69.000 194.082 69.458 M383.333 79.049 C 381.637 80.723,379.543 82.729,378.680 83.505 C 377.816 84.281,376.954 85.073,376.763 85.265 C 376.573 85.456,375.254 86.531,373.833 87.654 C 372.412 88.776,371.094 89.819,370.904 89.972 C 370.713 90.125,370.438 90.325,370.292 90.417 C 369.343 91.014,368.075 91.919,368.028 92.032 C 367.997 92.106,367.892 92.167,367.794 92.167 C 367.695 92.167,367.383 92.341,367.099 92.554 C 366.815 92.767,366.471 92.992,366.333 93.055 C 366.110 93.157,365.059 93.791,364.562 94.124 C 364.375 94.250,364.000 95.727,364.000 96.342 C 364.000 96.655,364.144 96.667,367.902 96.667 L 371.803 96.667 371.574 97.625 C 371.448 98.152,371.343 98.808,371.340 99.083 C 371.337 99.358,371.191 100.296,371.015 101.167 C 370.697 102.736,370.354 104.644,369.667 108.667 C 369.471 109.813,369.173 111.500,369.004 112.417 C 368.835 113.333,368.534 115.021,368.335 116.167 C 367.677 119.960,367.361 121.730,367.011 123.583 C 366.065 128.588,366.883 132.411,369.438 134.920 C 370.895 136.350,372.402 137.078,375.500 137.847 C 376.583 138.116,382.483 138.031,383.590 137.730 C 384.136 137.582,384.846 137.408,385.167 137.343 C 385.989 137.176,388.511 136.031,389.515 135.368 C 389.753 135.212,390.253 134.880,390.626 134.632 C 391.922 133.770,394.838 130.743,394.830 130.269 C 394.826 130.057,393.795 128.833,393.621 128.833 C 393.558 128.833,393.244 129.077,392.925 129.375 C 390.494 131.639,387.973 132.563,385.332 132.157 C 382.274 131.688,380.925 130.312,380.489 127.221 C 380.190 125.102,380.349 123.645,381.668 116.417 C 381.835 115.500,382.135 113.813,382.334 112.667 C 382.533 111.521,382.846 109.721,383.029 108.667 C 383.212 107.612,383.505 106.061,383.681 105.219 C 383.856 104.376,384.000 103.461,384.000 103.183 C 384.000 102.906,384.150 102.036,384.333 101.250 C 384.517 100.464,384.667 99.632,384.667 99.401 C 384.667 99.171,384.785 98.461,384.930 97.825 L 385.193 96.667 392.333 96.667 L 399.473 96.667 399.737 95.509 C 399.881 94.872,400.000 94.009,400.000 93.592 L 400.000 92.833 392.950 92.833 L 385.900 92.833 385.954 92.208 C 385.983 91.865,386.150 90.833,386.324 89.917 C 386.498 89.000,386.802 87.313,386.999 86.167 C 387.197 85.021,387.503 83.371,387.680 82.500 C 387.857 81.629,388.001 80.715,388.001 80.469 C 388.000 80.223,388.149 79.398,388.332 78.636 C 388.515 77.874,388.665 76.969,388.665 76.625 L 388.667 76.000 387.542 76.002 L 386.417 76.005 383.333 79.049 M269.750 91.255 C 268.925 91.375,267.476 91.515,266.529 91.566 C 265.583 91.617,263.933 91.770,262.863 91.907 C 261.792 92.043,260.204 92.199,259.333 92.254 C 258.462 92.309,256.930 92.462,255.927 92.594 C 254.925 92.725,253.796 92.833,253.420 92.833 L 252.735 92.833 252.560 93.958 C 252.349 95.307,252.138 95.072,253.917 95.468 C 258.357 96.458,259.608 98.317,258.827 102.764 C 258.732 103.306,258.512 104.537,258.340 105.500 C 258.167 106.462,257.866 108.188,257.670 109.333 C 257.474 110.479,257.168 112.130,256.990 113.002 C 256.812 113.873,256.667 114.771,256.667 114.996 C 256.667 115.221,256.525 116.120,256.351 116.994 C 256.178 117.868,255.872 119.521,255.672 120.667 C 255.472 121.813,255.164 123.462,254.987 124.333 C 254.810 125.204,254.665 126.104,254.666 126.333 C 254.668 126.957,253.986 129.187,253.638 129.692 C 253.470 129.936,253.333 130.198,253.332 130.276 C 253.326 131.283,249.659 133.404,246.732 134.094 C 246.588 134.128,246.000 135.987,246.000 136.409 C 246.000 136.459,251.990 136.500,259.311 136.500 L 272.621 136.500 272.721 135.792 C 272.775 135.402,272.870 134.840,272.931 134.542 C 273.028 134.067,272.998 134.000,272.690 134.000 C 272.181 134.000,269.913 132.864,269.195 132.249 C 267.501 130.798,267.466 128.650,269.015 121.000 C 269.191 120.129,269.334 119.229,269.333 119.000 C 269.332 118.771,269.476 117.871,269.653 117.000 C 269.829 116.129,270.136 114.479,270.333 113.333 C 270.531 112.188,270.839 110.425,271.018 109.417 C 271.197 108.408,271.414 107.180,271.500 106.688 C 271.688 105.619,272.376 104.662,274.383 102.683 C 276.225 100.866,276.261 100.833,276.396 100.833 C 276.461 100.833,276.662 100.696,276.843 100.527 C 277.419 99.990,279.539 99.013,280.917 98.650 C 285.498 97.441,288.731 99.277,289.577 103.568 C 289.928 105.344,289.865 106.153,289.004 111.000 C 288.833 111.962,288.530 113.688,288.332 114.833 C 288.133 115.979,287.832 117.667,287.663 118.583 C 287.494 119.500,287.196 121.188,287.001 122.333 C 285.899 128.822,285.397 130.202,283.548 131.829 C 282.491 132.760,279.689 133.998,278.635 133.999 C 278.069 134.000,278.058 134.021,277.914 135.375 L 277.795 136.500 291.217 136.500 L 304.639 136.500 304.820 135.658 C 305.110 134.305,305.067 134.000,304.588 134.000 C 304.188 134.000,303.338 133.668,301.868 132.938 C 299.642 131.833,299.009 129.727,299.733 125.833 C 299.895 124.962,300.167 123.462,300.338 122.500 C 300.508 121.537,300.796 119.925,300.978 118.917 C 301.159 117.908,301.469 116.146,301.667 115.000 C 302.104 112.473,302.535 110.060,303.009 107.489 C 303.454 105.079,303.416 101.012,302.935 99.500 C 302.453 97.986,301.131 95.500,300.808 95.500 C 300.730 95.500,300.667 95.433,300.667 95.351 C 300.667 94.551,296.736 91.938,295.000 91.584 C 294.862 91.556,294.172 91.413,293.465 91.266 C 291.825 90.926,289.423 90.926,287.643 91.266 C 286.877 91.413,286.080 91.565,285.871 91.604 C 285.663 91.643,285.119 91.822,284.663 92.002 C 284.207 92.181,283.833 92.291,283.833 92.244 C 283.833 92.198,283.515 92.323,283.125 92.521 C 282.735 92.720,282.379 92.882,282.333 92.882 C 282.287 92.882,281.987 93.042,281.667 93.237 C 281.346 93.433,280.797 93.741,280.447 93.921 C 280.097 94.102,279.669 94.381,279.496 94.542 C 279.322 94.702,279.134 94.833,279.077 94.833 C 278.674 94.833,275.141 98.077,273.818 99.663 C 272.462 101.286,272.494 101.260,272.573 100.718 C 272.715 99.756,273.370 96.028,273.666 94.500 C 273.835 93.629,274.018 92.485,274.072 91.958 L 274.170 91.000 272.710 91.018 C 271.907 91.028,270.575 91.135,269.750 91.255 M337.000 91.250 C 336.221 91.381,335.296 91.529,334.945 91.578 C 334.152 91.689,333.469 91.849,333.250 91.977 C 333.158 92.030,332.951 92.094,332.790 92.119 C 332.628 92.145,332.065 92.320,331.540 92.509 C 331.014 92.699,330.464 92.880,330.319 92.912 C 329.970 92.989,326.774 94.503,326.667 94.642 C 326.621 94.701,326.246 94.930,325.833 95.149 C 325.421 95.369,324.928 95.688,324.739 95.858 C 324.550 96.028,324.339 96.167,324.271 96.167 C 324.162 96.167,323.081 96.961,322.572 97.417 C 322.469 97.508,322.067 97.846,321.677 98.167 C 321.288 98.487,320.470 99.266,319.859 99.898 C 319.249 100.529,318.581 101.212,318.375 101.417 C 318.169 101.621,318.000 101.873,318.000 101.977 C 318.000 102.082,317.928 102.167,317.840 102.167 C 317.536 102.167,315.466 105.315,314.606 107.083 C 311.141 114.210,310.749 122.012,313.562 127.860 C 313.898 128.559,314.284 129.223,314.420 129.336 C 314.556 129.449,314.667 129.615,314.667 129.705 C 314.667 129.906,315.569 131.085,316.201 131.710 C 316.457 131.963,316.667 132.230,316.667 132.303 C 316.667 132.376,316.965 132.657,317.329 132.926 C 317.694 133.196,317.994 133.467,317.996 133.529 C 318.008 133.861,322.698 136.667,323.242 136.667 C 323.335 136.667,323.787 136.811,324.247 136.987 C 327.039 138.058,334.524 138.394,337.833 137.596 C 341.550 136.701,344.352 135.604,347.083 133.974 C 347.358 133.810,347.808 133.551,348.083 133.398 C 348.358 133.245,348.621 133.073,348.667 133.016 C 348.712 132.959,349.181 132.619,349.708 132.262 C 350.235 131.904,350.667 131.549,350.667 131.472 C 350.667 131.396,350.743 131.333,350.835 131.333 C 351.041 131.333,351.990 130.471,353.474 128.936 C 354.084 128.305,354.752 127.621,354.958 127.417 C 355.165 127.212,355.333 126.960,355.333 126.856 C 355.333 126.752,355.406 126.667,355.494 126.667 C 355.629 126.667,356.660 125.309,357.250 124.354 C 357.342 124.206,357.548 123.885,357.708 123.642 C 358.244 122.828,358.119 122.666,356.958 122.669 L 355.917 122.671 354.295 124.402 C 351.335 127.562,348.217 129.761,345.000 130.957 C 338.547 133.356,331.929 131.821,329.204 127.292 C 329.052 127.040,328.869 126.833,328.797 126.833 C 328.725 126.833,328.667 126.708,328.667 126.555 C 328.667 126.402,328.564 126.158,328.438 126.013 C 326.640 123.941,325.891 116.417,327.015 111.708 L 327.224 110.833 343.779 110.833 L 360.333 110.833 360.330 109.708 C 360.325 108.058,359.893 104.529,359.593 103.687 C 359.450 103.286,359.333 102.856,359.333 102.732 C 359.333 102.207,357.442 98.586,356.906 98.083 C 356.808 97.992,356.405 97.520,356.010 97.035 C 354.579 95.279,350.450 92.544,348.768 92.239 C 348.554 92.200,348.118 92.060,347.800 91.927 C 347.483 91.794,346.867 91.643,346.432 91.591 C 345.997 91.539,345.328 91.418,344.945 91.324 C 343.748 91.028,338.597 90.980,337.000 91.250 M340.890 94.698 C 343.385 95.243,345.103 97.283,346.270 101.083 C 346.503 101.844,346.590 102.771,346.635 104.958 L 346.694 107.833 337.204 107.833 L 327.713 107.833 327.882 107.125 C 328.075 106.314,328.777 104.080,328.994 103.583 C 329.820 101.696,330.942 99.618,331.184 99.528 C 331.266 99.497,331.333 99.373,331.333 99.251 C 331.333 99.015,333.868 96.384,334.419 96.048 C 335.734 95.247,336.319 94.979,337.221 94.761 C 338.894 94.356,339.298 94.350,340.890 94.698 " stroke="none" fill="#241c24" fill-rule="evenodd"></path><path id="path2" d="" stroke="none" fill="#242424" fill-rule="evenodd"></path><path id="path3" d="" stroke="none" fill="#542424" fill-rule="evenodd"></path><path id="path4" d="M144.792 69.122 C 145.181 69.157,145.819 69.157,146.208 69.122 C 146.598 69.087,146.279 69.058,145.500 69.058 C 144.721 69.058,144.402 69.087,144.792 69.122 " stroke="none" fill="#4c2424" fill-rule="evenodd"></path></g></svg>