<svg xmlns="http://www.w3.org/2000/svg" width="120" height="120" viewBox="0 0 120 120"><defs><style>.a{fill:#dd0802;}.b{fill:#2f2e41;}</style></defs><path class="a" d="M41.4,21a20.4,20.4,0,1,0,20.4,20.4A20.4,20.4,0,0,0,41.4,21Zm0,37.1A16.693,16.693,0,1,1,58.1,41.4,16.693,16.693,0,0,1,41.4,58.1Z" transform="translate(18.547 18.597)"/><path class="b" d="M105.174,58.125H88.051a28.654,28.654,0,0,0-.393-3.263l3.035-1.744a1.876,1.876,0,0,0,.581-2.494L84.3,38.344l9.03-9.019a7.5,7.5,0,1,0-1.667-11.569,7.373,7.373,0,0,0-.993,8.906c-13,13.013-10.9,11.1-12.4,11.981a28.4,28.4,0,0,0-8.955-5.156V30a1.874,1.874,0,0,0-1.873-1.875h-5.62V14.737C70.478,12.487,68.511,0,59.95,0S49.5,12.506,58.076,14.737V28.125h-5.62A1.874,1.874,0,0,0,50.582,30v3.488a28.4,28.4,0,0,0-8.88,5.156c-1.517-.9.525.975-12.4-11.981,4.44-7.5-5.62-15.263-11.746-9.094s1.461,16.256,9.086,11.756L35.6,38.344C28.1,51.338,28.1,50.906,28.364,51.975s.824,1.125,3.9,2.888a28.654,28.654,0,0,0-.318,3.262H14.725A7.493,7.493,0,0,0,0,60c0,8.625,12.477,10.481,14.725,1.875H31.942a28.654,28.654,0,0,0,.393,3.263L29.3,66.881a1.876,1.876,0,0,0-.674,2.494L35.6,81.656l-9.03,9.019a7.494,7.494,0,0,0-11.241,6.45c0,6.075,7.156,10.369,13,5.081a7.5,7.5,0,0,0,.937-8.869c13-13.012,10.9-11.1,12.4-11.981a28.4,28.4,0,0,0,8.918,5.156V90a1.874,1.874,0,0,0,1.873,1.875h5.62v13.387C49.664,107.456,51.182,120,59.95,120s10.472-12.487,1.873-14.738V91.875h5.62A1.874,1.874,0,0,0,69.317,90V86.512a28.4,28.4,0,0,0,8.88-5.156c1.517.9-.525-.975,12.4,11.981a7.55,7.55,0,1,0,2.679-2.644L84.3,81.656C91.8,68.662,91.8,69.094,91.536,68.025s-.824-1.125-3.9-2.887a28.656,28.656,0,0,0,.412-3.262h17.217c2.248,8.662,14.725,6.694,14.725-1.875a7.493,7.493,0,0,0-14.819-1.875ZM56.2,7.5a3.747,3.747,0,1,1,3.747,3.75A3.748,3.748,0,0,1,56.2,7.5Zm7.494,105a3.747,3.747,0,1,1-3.747-3.75A3.748,3.748,0,0,1,63.7,112.5ZM99.685,20.231a3.746,3.746,0,1,1-4.073-.806A3.752,3.752,0,0,1,99.685,20.231ZM20.214,25.537a3.748,3.748,0,1,1,5.3,0A3.857,3.857,0,0,1,20.214,25.537ZM7.494,63.75A3.75,3.75,0,1,1,11.241,60,3.748,3.748,0,0,1,7.494,63.75ZM20.214,99.769a3.745,3.745,0,1,1,2.651,1.1,3.752,3.752,0,0,1-2.651-1.1Zm79.471-5.306a3.746,3.746,0,1,1-4.082-.8,3.752,3.752,0,0,1,4.082.8ZM81.475,78.938l-2.585-1.5a1.872,1.872,0,0,0-2.229.263c-6.8,6.431-11.091,4.519-11.091,7.5v2.925H54.329c0-2.812.318-4.275-1.33-4.781-8.955-2.662-9.367-7.387-11.99-5.906l-2.585,1.5-5.62-9.75c2.585-1.5,3.859-1.875,3.466-3.544a23.945,23.945,0,0,1,0-11.25c.393-1.631-.881-2.062-3.466-3.544l5.62-9.75,2.585,1.5C43.557,44.062,44.1,39.337,53,36.694c1.592-.488,1.33-1.875,1.33-4.781H65.57v2.981c0,2.925,4.29,1.013,11.091,7.5,1.218,1.163,2.229.263,4.815-1.237l5.62,9.75c-5.62,3.263-2.791,1.256-2.791,9.188s-2.866,5.925,2.791,9.188Zm30.93-15.187A3.75,3.75,0,1,1,116.152,60,3.748,3.748,0,0,1,112.405,63.75Z" transform="translate(0)"/><path d="M7.49,26.307A1.855,1.855,0,0,0,3.91,25.4a1.855,1.855,0,0,0,3.58.909Z" transform="translate(3.323 21.159)"/><path d="M10.326,19.427a1.855,1.855,0,0,0-3.19-1.855,1.855,1.855,0,0,0,3.19,1.855Z" transform="translate(5.959 14.717)"/><path d="M8.7,22.856a1.858,1.858,0,1,0-2.43,1,1.858,1.858,0,0,0,2.43-1Z" transform="translate(4.379 17.761)"/><path d="M41.506,6A1.855,1.855,0,0,0,38,5.086,1.855,1.855,0,0,0,41.506,6Z" transform="translate(33.211 3.483)"/><path d="M45.287,7.7a1.858,1.858,0,1,0-2.43,1,1.858,1.858,0,0,0,2.43-1Z" transform="translate(36.458 4.379)"/><path d="M48.7,9.637a1.855,1.855,0,0,0-3.19-1.855A1.855,1.855,0,0,0,48.7,9.637Z" transform="translate(39.628 5.999)"/><path d="M60.445,38.026A1.856,1.856,0,1,0,61.79,40.28a1.856,1.856,0,0,0-1.345-2.254Z" transform="translate(50.886 33.248)"/><path d="M57.8,45.506a1.855,1.855,0,1,0,.513,2.432A1.855,1.855,0,0,0,57.8,45.506Z" transform="translate(48.359 39.701)"/><path d="M59.43,41.854a1.855,1.855,0,1,0,1.011,2.421,1.855,1.855,0,0,0-1.011-2.421Z" transform="translate(49.805 36.528)"/><path d="M19.427,55.3a1.855,1.855,0,0,0-1.855,3.19,1.855,1.855,0,0,0,1.855-3.19Z" transform="translate(14.69 48.419)"/><path d="M20.424,58.02a1.855,1.855,0,1,0,2.421-1.011,1.855,1.855,0,0,0-2.421,1.011Z" transform="translate(17.729 49.905)"/><path d="M26.385,58.186A1.856,1.856,0,1,0,27.73,60.44a1.856,1.856,0,0,0-1.345-2.254Z" transform="translate(21.042 50.982)"/><path d="M8.7,42.858a1.858,1.858,0,1,0-1,2.43A1.858,1.858,0,0,0,8.7,42.858Z" transform="translate(4.379 36.526)"/><path d="M7.523,39.291h0a2.637,2.637,0,1,0,0,.074Z" transform="translate(3.309 33.244)"/><path d="M10.326,46.132a1.855,1.855,0,0,0-3.19,1.855,1.855,1.855,0,0,0,3.19-1.855Z" transform="translate(5.959 39.724)"/><path d="M46.183,55.343a1.855,1.855,0,1,0,1.416-.211A1.855,1.855,0,0,0,46.183,55.343Z" transform="translate(39.582 48.372)"/><path d="M42.855,57.066a1.855,1.855,0,1,0,1.423,0A1.855,1.855,0,0,0,42.855,57.066Z" transform="translate(36.461 49.95)"/><path d="M39.328,58.2a1.855,1.855,0,1,0,2.244,1.335A1.855,1.855,0,0,0,39.328,58.2Z" transform="translate(33.145 50.991)"/><path d="M57.8,20.116a1.855,1.855,0,0,0-1.855-3.19,1.855,1.855,0,0,0,1.855,3.19Z" transform="translate(48.359 14.676)"/><path d="M57.064,22.84a1.855,1.855,0,1,0,.544-2.143A1.855,1.855,0,0,0,57.064,22.84Z" transform="translate(49.852 17.758)"/><path d="M60.445,27.685a1.856,1.856,0,1,0-2.254-1.345,1.856,1.856,0,0,0,2.254,1.345Z" transform="translate(50.886 21.041)"/><path d="M20.116,7.762a1.855,1.855,0,0,0-3.19,1.855,1.855,1.855,0,0,0,3.19-1.855Z" transform="translate(14.649 5.982)"/><path d="M22.146,8.843a1.855,1.855,0,1,0-1.843-1.5A1.855,1.855,0,0,0,22.146,8.843Z" transform="translate(17.714 4.382)"/><path d="M27.685,5.266A1.856,1.856,0,1,0,26.34,7.52a1.856,1.856,0,0,0,1.345-2.254Z" transform="translate(21.002 3.303)"/></svg>