<svg xmlns="http://www.w3.org/2000/svg" width="120" height="120" viewBox="0 0 120 120"><defs><style>.a{fill:#dd0802;}.b{fill:#2f2e41;}</style></defs><g transform="translate(0.019 0.019)"><path class="a" d="M70.954,17H18.86A1.86,1.86,0,0,0,17,18.86V70.954a1.86,1.86,0,0,0,1.86,1.86H70.954a1.86,1.86,0,0,0,1.86-1.86V18.86A1.86,1.86,0,0,0,70.954,17Zm-1.86,52.094H20.721V20.721H69.094Z" transform="translate(15.073 15.073)"/><path class="b" d="M106.827,56.233c.825,0,.918-.225,4.385-2.811a5.622,5.622,0,1,0-2.511-4.685c0,2.4,1.387.825-2.492,3.748H95.584v-7.5c9.875,0,10.194.319,10.962-.881L113.1,33.615a5.622,5.622,0,1,0-3.167-2.005l-6.015,9.632H95.584v-7.5a9.369,9.369,0,0,0-9.369-9.369h-7.5v-7.5H91.837a1.874,1.874,0,0,0,1.874-1.874V10.923a5.622,5.622,0,1,0-3.748,0v2.211H76.846a1.874,1.874,0,0,0-1.874,1.874v9.369h-7.5V13.752l2.08-2.773a5.622,5.622,0,1,0-3.017-2.23c-3.56,4.76-2.811,1.443-2.811,15.628h-7.5V13.134c0-.825-.225-.918-2.811-4.385a5.622,5.622,0,1,0-4.685,2.511c2.4,0,.825-1.387,3.748,2.492V24.377h-7.5c0-9.875.319-10.194-.881-10.962L33.615,6.856a5.622,5.622,0,1,0-2.005,3.167l9.632,6.015v8.339h-7.5a9.369,9.369,0,0,0-9.369,9.369v7.5h-7.5V28.125a1.874,1.874,0,0,0-1.874-1.874H10.923a5.622,5.622,0,1,0,0,3.748h2.211V43.116a1.874,1.874,0,0,0,1.874,1.874h9.369v7.5H13.752l-2.773-2.08a5.622,5.622,0,1,0-2.23,3.017c4.76,3.56,1.443,2.811,15.628,2.811v7.5H13.134c-.825,0-.918.225-4.385,2.811a5.622,5.622,0,1,0,2.511,4.685c0-2.4-1.387-.825,2.492-3.748H24.377v7.5c-9.875,0-10.194-.319-10.962.881L6.856,86.346a5.622,5.622,0,1,0,3.167,2.005l6.015-9.632h8.339v7.5a9.369,9.369,0,0,0,9.369,9.369h7.5v7.5H28.125a1.874,1.874,0,0,0-1.874,1.874v4.085a5.622,5.622,0,1,0,3.748,0v-2.211H43.116a1.874,1.874,0,0,0,1.874-1.874V95.584h7.5v10.625l-2.08,2.773a5.622,5.622,0,1,0,3.017,2.23c3.56-4.76,2.811-1.443,2.811-15.628h7.5v11.243c0,.825.225.918,2.811,4.385a5.622,5.622,0,1,0,4.685-2.511c-2.4,0-.825,1.387-3.748-2.492V95.584h7.5c0,9.875-.319,10.194.881,10.962L86.346,113.1a5.622,5.622,0,1,0,2.005-3.167l-9.632-6.015V95.584h7.5a9.369,9.369,0,0,0,9.369-9.369v-7.5h7.5V91.837a1.874,1.874,0,0,0,1.874,1.874h4.085a5.622,5.622,0,1,0,0-3.748h-2.211V76.846a1.874,1.874,0,0,0-1.874-1.874H95.584v-7.5h10.625l2.773,2.08a5.622,5.622,0,1,0,2.23-3.017c-4.76-3.56-1.443-2.811-15.628-2.811v-7.5Zm7.5-9.369a1.874,1.874,0,1,1-1.874,1.874A1.874,1.874,0,0,1,114.323,46.864Zm0-20.613a1.874,1.874,0,1,1-1.874,1.874A1.874,1.874,0,0,1,114.323,26.251ZM91.837,3.765a1.874,1.874,0,1,1-1.874,1.874A1.874,1.874,0,0,1,91.837,3.765Zm-20.613,0A1.874,1.874,0,1,1,69.35,5.638,1.874,1.874,0,0,1,71.224,3.765ZM46.864,5.638a1.874,1.874,0,1,1,1.874,1.874A1.874,1.874,0,0,1,46.864,5.638ZM28.125,7.512A1.874,1.874,0,1,1,30,5.638,1.874,1.874,0,0,1,28.125,7.512ZM5.638,30a1.874,1.874,0,1,1,1.874-1.874A1.874,1.874,0,0,1,5.638,30ZM3.765,48.737a1.874,1.874,0,1,1,1.874,1.874A1.874,1.874,0,0,1,3.765,48.737ZM5.638,73.1a1.874,1.874,0,1,1,1.874-1.874A1.874,1.874,0,0,1,5.638,73.1Zm0,20.613a1.874,1.874,0,1,1,1.874-1.874A1.874,1.874,0,0,1,5.638,93.71ZM28.125,116.2A1.874,1.874,0,1,1,30,114.323,1.874,1.874,0,0,1,28.125,116.2Zm20.613,0a1.874,1.874,0,1,1,1.874-1.874A1.874,1.874,0,0,1,48.737,116.2Zm24.36-1.874a1.874,1.874,0,1,1-1.874-1.874A1.874,1.874,0,0,1,73.1,114.323Zm18.739-1.874a1.874,1.874,0,1,1-1.874,1.874A1.874,1.874,0,0,1,91.837,112.449Zm22.486-22.486a1.874,1.874,0,1,1-1.874,1.874A1.874,1.874,0,0,1,114.323,89.963ZM116.2,71.224a1.874,1.874,0,1,1-1.874-1.874A1.874,1.874,0,0,1,116.2,71.224ZM91.837,86.215a5.622,5.622,0,0,1-5.622,5.622H33.747a5.622,5.622,0,0,1-5.622-5.622V33.747a5.622,5.622,0,0,1,5.622-5.622H86.215a5.622,5.622,0,0,1,5.622,5.622Z" transform="translate(0 0)"/></g></svg>