<?xml version="1.0" standalone="no"?>
<!DOCTYPE svg PUBLIC "-//W3C//DTD SVG 20010904//EN"
 "http://www.w3.org/TR/2001/REC-SVG-20010904/DTD/svg10.dtd">
<svg version="1.0" xmlns="http://www.w3.org/2000/svg"
 width="634.000000pt" height="634.000000pt" viewBox="0 0 634.000000 634.000000"
 preserveAspectRatio="xMidYMid meet">

<g transform="translate(0.000000,634.000000) scale(0.100000,-0.100000)"
fill="#000000" stroke="none">
<path d="M1805 4219 c-38 -5 -83 -13 -100 -18 -16 -5 -50 -13 -75 -17 -50 -7
-331 -98 -370 -120 -14 -7 -52 -25 -85 -40 -58 -26 -269 -140 -290 -156 -5 -4
-48 -33 -93 -64 -275 -182 -531 -438 -659 -659 -111 -192 -150 -353 -118 -485
45 -182 193 -282 453 -304 81 -7 92 7 15 18 -60 8 -139 44 -185 85 -153 134
-131 392 56 651 196 272 535 540 866 684 47 21 94 42 105 47 46 21 177 61 280
85 90 22 135 27 250 27 127 1 147 -2 213 -26 82 -29 123 -55 169 -105 58 -63
68 -95 67 -217 0 -99 -3 -117 -31 -185 -17 -42 -44 -98 -60 -125 l-29 -50
-120 -5 c-103 -4 -119 -7 -122 -22 -2 -12 3 -18 17 -18 11 0 29 -12 41 -27 40
-51 39 -51 -196 -510 -31 -62 -61 -113 -65 -113 -10 0 -9 -3 -49 205 -17 88
-37 190 -45 227 -31 139 -31 153 3 187 17 17 38 31 46 31 9 0 16 8 16 20 0 20
-5 20 -232 18 -212 -3 -233 -5 -236 -20 -3 -13 3 -18 19 -18 36 0 86 -40 99
-81 14 -40 33 5 -194 -443 -34 -65 -65 -119 -71 -120 -13 -1 -105 451 -108
530 -2 67 14 97 61 115 12 5 22 15 22 24 0 13 -31 15 -235 15 -228 0 -235 -1
-235 -20 0 -14 7 -20 24 -20 59 0 96 -63 121 -208 8 -48 22 -116 30 -152 8
-36 40 -195 70 -355 31 -159 61 -309 67 -333 21 -82 5 -108 345 560 69 136
129 245 133 243 4 -3 11 -26 15 -52 3 -27 15 -86 25 -133 10 -47 33 -159 50
-250 17 -91 38 -194 45 -230 8 -36 19 -91 25 -122 11 -57 27 -72 47 -45 10 12
84 154 301 577 132 258 183 349 225 403 35 45 108 97 136 97 14 0 21 6 21 20
0 15 -7 20 -25 20 -14 0 -25 3 -25 6 0 3 22 36 48 73 255 352 272 672 43 819
-115 73 -327 107 -516 81z"/>
<path d="M2340 3221 c0 -13 9 -22 28 -26 15 -3 38 -15 52 -27 22 -18 25 -27
24 -87 -1 -36 -9 -96 -18 -132 -8 -36 -18 -88 -21 -115 -4 -27 -13 -83 -21
-124 -8 -41 -26 -140 -39 -220 -36 -211 -48 -245 -93 -275 -21 -13 -52 -27
-70 -31 -22 -5 -32 -12 -32 -25 0 -18 12 -19 255 -19 236 0 255 1 255 18 -1
10 -17 25 -43 37 -24 12 -48 32 -55 48 -15 30 -14 31 54 417 13 74 34 191 45
260 29 174 49 224 103 255 24 14 52 25 64 25 15 0 22 6 22 20 0 19 -7 20 -255
20 -245 0 -255 -1 -255 -19z"/>
<path d="M2992 3223 c-11 -22 -63 -197 -70 -235 -7 -45 20 -34 51 21 40 73
108 138 155 151 25 6 128 9 271 8 l230 -3 -47 -51 c-26 -28 -78 -86 -117 -129
-38 -43 -77 -85 -86 -94 -19 -19 -293 -318 -507 -553 -83 -92 -152 -174 -152
-183 0 -13 61 -15 519 -15 l519 0 16 43 c36 97 76 221 76 234 0 28 -29 11 -59
-36 -48 -74 -120 -137 -182 -157 -44 -15 -98 -19 -293 -22 -141 -2 -243 1
-248 6 -8 8 150 189 332 383 8 8 38 40 65 71 28 30 86 94 130 143 44 48 144
158 222 244 79 86 143 164 143 174 0 16 -29 17 -480 17 -446 0 -480 -1 -488
-17z"/>
<path d="M6089 3093 c-36 -41 -150 -145 -183 -168 -16 -11 -40 -29 -55 -41
-14 -12 -41 -29 -58 -38 -21 -10 -33 -24 -33 -36 0 -18 7 -20 66 -20 44 0 63
-4 59 -11 -4 -6 -17 -72 -30 -147 -13 -75 -31 -180 -40 -232 -27 -153 -11
-216 65 -258 71 -39 200 -34 278 11 54 31 95 75 88 93 -5 13 -10 13 -35 -5
-67 -48 -116 -49 -164 -5 -23 21 -27 33 -26 77 0 29 4 72 9 97 4 25 20 112 34
194 14 81 28 157 31 167 6 17 18 19 126 19 l119 0 0 30 0 30 -116 0 -116 0 7
43 c4 23 13 74 21 112 8 39 14 80 14 93 0 31 -30 29 -61 -5z"/>
<path d="M4535 2870 c-85 -7 -151 -37 -213 -97 -25 -23 -47 -43 -50 -43 -4 0
7 96 15 124 5 18 0 19 -108 12 -222 -14 -250 -19 -235 -45 4 -6 15 -11 24 -11
10 0 33 -13 52 -28 l34 -29 -11 -69 c-7 -38 -21 -123 -32 -189 -41 -252 -47
-267 -117 -301 -30 -14 -54 -33 -54 -40 0 -12 36 -14 212 -12 192 3 213 5 216
20 2 12 -5 19 -22 24 -46 11 -59 36 -53 106 4 56 38 265 52 326 8 32 72 100
116 123 48 24 116 24 147 1 13 -10 27 -35 32 -55 9 -40 -9 -190 -35 -305 -8
-35 -15 -74 -15 -86 0 -40 -42 -89 -90 -107 -25 -9 -45 -23 -45 -30 0 -11 42
-15 218 -17 203 -2 217 -1 217 16 0 10 -12 22 -29 29 -16 6 -37 22 -46 36 -19
29 -17 43 25 287 41 235 16 314 -112 358 -13 4 -55 5 -93 2z"/>
<path d="M5235 2856 c-121 -38 -227 -130 -282 -245 -33 -68 -38 -86 -41 -172
-5 -109 10 -156 67 -221 121 -139 378 -137 556 3 49 40 115 114 115 130 0 18
-27 8 -51 -17 -51 -54 -121 -97 -190 -115 -62 -16 -73 -17 -118 -3 -97 28
-157 132 -148 255 2 37 7 71 11 78 5 8 85 11 273 11 l266 0 -5 65 c-9 110 -80
200 -182 230 -60 18 -215 19 -271 1z m158 -41 c53 -26 71 -61 75 -142 l4 -73
-155 0 -155 0 7 33 c22 96 111 193 179 196 8 1 28 -6 45 -14z"/>
</g>
</svg>
