<svg xmlns="http://www.w3.org/2000/svg" width="120" height="120" viewBox="0 0 120 120"><defs><style>.a{fill:#dd0802;}.b{fill:#2f2e41;}</style></defs><path class="a" d="M43.906,5H28.878a1.878,1.878,0,1,0,0,3.757H43.906a1.878,1.878,0,1,0,0-3.757Z" transform="translate(23.608 4.392)"/><path class="a" d="M43.906,9H28.878a1.878,1.878,0,1,0,0,3.757H43.906a1.878,1.878,0,1,0,0-3.757Z" transform="translate(23.608 7.906)"/><path class="a" d="M43.906,13H28.878a1.878,1.878,0,1,0,0,3.757H43.906a1.878,1.878,0,1,0,0-3.757Z" transform="translate(23.608 11.374)"/><path class="a" d="M43.906,17H28.878a1.878,1.878,0,1,0,0,3.757H43.906a1.878,1.878,0,1,0,0-3.757Z" transform="translate(23.608 14.873)"/><path class="a" d="M20.906,5H5.878A1.878,1.878,0,0,0,4,6.878v7.514a1.878,1.878,0,0,0,1.878,1.878H20.906a1.878,1.878,0,0,0,1.878-1.878V6.878A1.878,1.878,0,0,0,20.906,5Zm-1.878,7.514H7.757V8.757H19.028Z" transform="translate(3.514 4.392)"/><path class="a" d="M20.906,13H5.878A1.878,1.878,0,0,0,4,14.878v7.514a1.878,1.878,0,0,0,1.878,1.878H20.906a1.878,1.878,0,0,0,1.878-1.878V14.878A1.878,1.878,0,0,0,20.906,13Zm-1.878,7.514H7.757V16.757H19.028Z" transform="translate(3.514 11.37)"/><path class="a" d="M53.6,60.506c-.958,5.391-1.616,6.725-.3,7.683s1.878.169,7.213-2.649c5.485,3.006,5.429,3.006,6.105,3.006A1.879,1.879,0,0,0,68.5,66.329l-1.033-5.823,4.321-4.1A1.879,1.879,0,0,0,70.753,53.2l-5.861-.808-2.686-5.335a1.879,1.879,0,0,0-3.381,0L56.232,52.39c-5.354.733-6.875.507-7.382,2.085S49.244,56.354,53.6,60.506Zm6.913-8.322c2.048,4.208,1.165,3.55,5.786,4.208-3.4,3.269-3.024,2.2-2.217,6.8-4.151-2.217-2.987-2.217-7.138,0,.808-4.621,1.165-3.55-2.217-6.8C59.388,55.734,58.467,56.392,60.515,52.184Z" transform="translate(42.579 40.184)"/><path class="b" d="M105,60V45h13.125A1.875,1.875,0,0,0,120,43.125V1.875A1.875,1.875,0,0,0,118.125,0h-30A1.875,1.875,0,0,0,86.25,1.875v18.75H76.875V1.875A1.875,1.875,0,0,0,75,0H45a1.875,1.875,0,0,0-1.875,1.875v18.75H33.75V1.875A1.875,1.875,0,0,0,31.875,0h-30A1.875,1.875,0,0,0,0,1.875v41.25A1.875,1.875,0,0,0,1.875,45h30a1.875,1.875,0,0,0,1.875-1.875V24.375h9.375v18.75A1.875,1.875,0,0,0,45,45H75a1.875,1.875,0,0,0,1.875-1.875V24.375H86.25v18.75A1.875,1.875,0,0,0,88.125,45H101.25V58.125H16.875A1.875,1.875,0,0,0,15,60V75H1.875A1.875,1.875,0,0,0,0,76.875v41.25A1.875,1.875,0,0,0,1.875,120h30a1.875,1.875,0,0,0,1.875-1.875V99.375h9.375v18.75A1.875,1.875,0,0,0,45,120H75a1.875,1.875,0,0,0,1.875-1.875V99.375H86.25v18.75A1.875,1.875,0,0,0,88.125,120h30A1.875,1.875,0,0,0,120,118.125V76.875A1.875,1.875,0,0,0,118.125,75h-30a1.875,1.875,0,0,0-1.875,1.875v18.75H76.875V76.875A1.875,1.875,0,0,0,75,75H45a1.875,1.875,0,0,0-1.875,1.875v18.75H33.75V76.875A1.875,1.875,0,0,0,31.875,75H18.75V61.875h84.375A1.875,1.875,0,0,0,105,60ZM30,41.25H3.75V3.75H30Zm43.125,0H46.875V3.75h26.25ZM90,3.75h26.25v37.5H90Zm0,75h26.25v37.5H90Zm-43.125,0h26.25v37.5H46.875ZM30,116.25H3.75V78.75H30Z"/><path class="b" d="M32.878,28.757A1.878,1.878,0,1,0,31,26.878,1.878,1.878,0,0,0,32.878,28.757Z" transform="translate(27.122 21.872)"/><path class="b" d="M32.878,31.757A1.878,1.878,0,1,0,31,29.878,1.878,1.878,0,0,0,32.878,31.757Z" transform="translate(27.122 24.497)"/><path class="b" d="M32.878,34a1.878,1.878,0,1,0,1.878,1.878A1.878,1.878,0,0,0,32.878,34Z" transform="translate(27.122 29.746)"/><path class="b" d="M32.878,37a1.878,1.878,0,1,0,1.878,1.878A1.878,1.878,0,0,0,32.878,37Z" transform="translate(27.122 32.371)"/><path class="a" d="M61.271,32.177V22.6a9.392,9.392,0,1,0-3.757,0v9.58a1.878,1.878,0,1,0,3.757,0ZM53.757,13.392a5.635,5.635,0,1,1,5.635,5.635A5.635,5.635,0,0,1,53.757,13.392Z" transform="translate(43.701 3.515)"/><path class="a" d="M28.878,62.785H43.906a1.878,1.878,0,0,0,1.878-1.878V45.878A1.878,1.878,0,0,0,43.906,44H28.878A1.878,1.878,0,0,0,27,45.878V60.906A1.878,1.878,0,0,0,28.878,62.785Zm1.878-15.028H42.028V59.028H30.757Z" transform="translate(23.608 38.472)"/><path class="a" d="M28.878,60.757H43.906a1.878,1.878,0,1,0,0-3.757H28.878a1.878,1.878,0,1,0,0,3.757Z" transform="translate(23.608 49.851)"/><path class="a" d="M8,52.878v7.514a1.878,1.878,0,1,0,3.757,0V52.878a1.878,1.878,0,0,0-3.757,0Z" transform="translate(7.028 44.58)"/><path class="a" d="M4,49.878V63.028a1.878,1.878,0,1,0,3.757,0V49.878a1.878,1.878,0,0,0-3.757,0Z" transform="translate(3.514 41.944)"/><path class="a" d="M15.757,64.785V47.878a1.878,1.878,0,1,0-3.757,0V64.785a1.878,1.878,0,1,0,3.757,0Z" transform="translate(10.499 40.187)"/></svg>